<?xml version="1.0" standalone="no"?>
<!DOCTYPE svg PUBLIC "-//W3C//DTD SVG 20010904//EN"
 "http://www.w3.org/TR/2001/REC-SVG-20010904/DTD/svg10.dtd">
<svg version="1.0" xmlns="http://www.w3.org/2000/svg"
 width="1280.000000pt" height="1280.000000pt" viewBox="0 0 1280.000000 1280.000000"
 preserveAspectRatio="xMidYMid meet">
<metadata>
Created by potrace 1.14, written by Peter Selinger 2001-2017
</metadata>
<g transform="translate(0.000000,1280.000000) scale(0.100000,-0.100000)"
fill="#000000" stroke="none">
<path d="M2450 12671 c-36 -37 -171 -177 -300 -310 -129 -133 -237 -244 -239
-246 -3 -3 90 -94 222 -216 32 -30 85 -79 116 -109 32 -30 120 -113 196 -185
76 -71 150 -141 165 -155 15 -14 80 -74 144 -135 65 -60 142 -132 171 -160 29
-27 112 -106 186 -175 134 -126 250 -235 319 -300 20 -19 58 -54 83 -78 26
-23 47 -47 47 -53 0 -6 -11 -25 -24 -42 -13 -18 -26 -42 -30 -54 -3 -13 -9
-32 -12 -43 -4 -15 23 -48 123 -148 106 -107 132 -128 155 -126 31 3 94 34
127 63 l25 22 21 -23 c12 -13 80 -77 150 -143 71 -66 145 -136 165 -155 20
-19 86 -81 146 -137 117 -109 162 -151 295 -277 47 -44 143 -134 212 -199
l125 -118 -24 -49 c-42 -84 -40 -89 109 -238 73 -73 143 -134 155 -137 24 -4
71 13 116 44 l29 19 45 -41 c24 -23 68 -64 97 -92 29 -27 83 -79 121 -114 38
-36 110 -103 160 -150 49 -47 146 -138 214 -201 68 -63 129 -121 137 -128 11
-11 8 -19 -19 -46 -18 -18 -69 -72 -113 -120 -44 -49 -91 -100 -105 -115 -79
-85 -203 -222 -236 -260 -22 -24 -57 -63 -79 -87 -22 -23 -65 -70 -95 -104
-30 -35 -59 -68 -65 -74 -33 -36 -109 -121 -165 -185 -36 -41 -70 -79 -75 -85
-16 -18 -139 -158 -171 -195 -16 -19 -36 -41 -45 -50 -8 -9 -46 -52 -84 -96
-38 -44 -71 -82 -74 -85 -4 -3 -31 -34 -61 -70 -30 -36 -67 -78 -81 -95 -34
-38 -210 -244 -269 -315 -25 -29 -50 -58 -55 -64 -6 -6 -59 -69 -118 -141
-140 -168 -135 -161 -187 -225 -25 -30 -47 -57 -50 -60 -3 -3 -24 -27 -45 -55
-22 -27 -42 -52 -45 -55 -3 -3 -23 -27 -45 -55 -21 -27 -42 -52 -45 -55 -3 -3
-84 -104 -180 -225 -96 -121 -177 -222 -180 -225 -3 -3 -94 -122 -202 -266
l-196 -261 -63 35 c-35 19 -82 44 -104 56 -22 12 -110 61 -196 109 -86 48
-161 87 -167 87 -6 0 -12 4 -14 8 -1 4 -84 52 -183 107 -99 54 -196 107 -215
118 -59 33 -112 63 -175 97 -33 18 -94 52 -135 75 -41 24 -100 56 -130 72 -51
28 -87 48 -200 111 -84 47 -125 69 -195 107 -106 58 -110 60 -115 65 -3 3 -18
12 -35 20 -16 8 -75 40 -130 71 -55 31 -125 69 -155 86 -30 17 -71 39 -90 50
-19 11 -71 39 -115 63 -44 24 -102 56 -128 72 -26 15 -50 28 -52 28 -2 0 -27
14 -55 30 l-51 30 -115 -117 c-63 -65 -145 -149 -181 -186 l-67 -69 49 -45
c59 -54 282 -263 335 -313 42 -40 258 -242 310 -290 19 -18 87 -81 150 -140
63 -59 131 -122 150 -140 19 -18 89 -82 154 -144 65 -61 136 -127 157 -146 20
-19 91 -86 157 -148 66 -62 129 -121 140 -130 17 -15 102 -94 306 -285 88 -83
258 -242 289 -270 18 -17 65 -61 105 -100 l72 -69 -10 -39 c-6 -21 -19 -66
-30 -100 -11 -34 -22 -72 -25 -83 -9 -46 -14 -68 -19 -84 -32 -109 -24 -319
15 -440 6 -18 12 -39 13 -45 2 -7 7 -21 11 -32 4 -11 13 -34 20 -51 8 -20 24
-35 46 -43 19 -8 49 -20 67 -28 148 -65 360 -75 547 -27 33 9 71 18 84 20 13
3 32 9 43 15 10 5 18 8 18 5 0 -3 15 1 33 8 17 7 44 16 59 20 32 7 7 31 318
-303 63 -68 129 -138 145 -156 17 -17 57 -61 90 -96 33 -36 117 -125 186 -199
70 -74 142 -151 160 -171 44 -47 246 -264 279 -299 14 -15 81 -87 150 -161 69
-74 154 -165 190 -203 36 -38 72 -77 80 -86 8 -9 65 -69 125 -134 61 -64 126
-134 145 -155 19 -21 94 -100 165 -177 72 -76 149 -159 172 -184 l42 -45 98
97 c54 53 137 135 185 181 l88 85 -60 105 c-33 59 -60 108 -60 110 0 2 -31 59
-70 126 -38 68 -70 124 -70 126 0 2 -15 30 -34 62 -18 32 -49 87 -68 123 -54
99 -87 158 -134 241 -24 42 -44 78 -44 81 0 3 -23 44 -50 92 -28 48 -66 116
-84 149 -19 34 -76 139 -128 232 -52 94 -97 177 -101 185 -4 8 -17 31 -28 50
-12 19 -37 64 -57 100 -19 36 -54 99 -77 140 -23 41 -57 102 -75 135 -18 33
-77 139 -130 236 -54 96 -112 200 -128 230 -16 30 -46 84 -67 121 -20 38 -32
68 -27 68 6 0 21 9 34 20 12 11 89 69 170 129 81 61 153 115 160 120 7 6 41
32 75 59 34 26 76 58 94 72 18 14 122 97 232 185 110 88 217 173 238 188 22
15 39 32 39 37 0 5 8 11 18 15 9 3 36 22 58 43 23 20 50 44 61 52 41 32 178
145 183 150 3 3 61 52 130 110 69 57 130 109 137 115 6 5 30 26 54 45 23 19
47 40 53 45 6 6 56 48 111 95 55 46 107 91 116 100 9 8 27 24 40 35 37 31 153
129 165 140 6 6 42 37 79 70 38 33 76 67 85 75 9 8 47 42 85 75 39 33 72 62
75 65 3 3 36 32 74 65 39 33 82 71 96 85 15 14 55 50 89 80 35 30 78 69 96 85
17 17 58 53 90 80 32 28 67 59 79 71 11 12 50 47 86 79 67 60 233 211 281 255
15 14 66 61 114 105 48 44 101 92 117 108 17 15 34 27 38 27 10 0 7 3 145
-145 61 -66 149 -160 196 -210 47 -49 114 -121 150 -159 69 -74 138 -146 202
-213 l40 -42 -25 -33 c-31 -41 -48 -96 -38 -123 5 -11 68 -79 142 -152 l134
-132 44 11 c25 6 57 19 71 29 l27 19 120 -128 c153 -162 173 -183 312 -332 63
-67 135 -144 160 -170 62 -65 280 -297 320 -340 18 -19 59 -63 91 -97 51 -53
57 -63 45 -75 -29 -30 -74 -123 -70 -147 3 -15 54 -74 128 -148 109 -108 127
-122 151 -117 33 6 97 38 118 58 15 16 21 11 297 -284 14 -15 81 -86 150 -159
69 -73 141 -149 160 -170 126 -134 292 -311 328 -350 24 -25 92 -97 150 -160
59 -62 125 -132 147 -156 22 -23 94 -100 160 -171 66 -70 135 -143 153 -162
l33 -35 67 65 c37 36 106 103 153 149 47 46 159 154 248 240 88 86 161 159
161 163 0 3 -20 40 -45 82 -25 41 -45 77 -45 79 0 2 -18 34 -41 72 -22 37 -45
75 -49 83 -12 21 -174 298 -231 395 -91 154 -222 380 -247 425 -14 25 -33 57
-43 72 -11 14 -19 29 -19 32 0 4 -11 25 -26 47 -14 22 -33 55 -43 72 -10 18
-60 104 -111 192 -51 88 -109 188 -129 223 l-36 63 62 67 c35 37 63 70 63 74
0 4 6 13 14 20 40 40 84 152 82 208 -2 39 -10 49 -246 285 l-245 244 -48 -4
c-28 -1 -74 -16 -108 -33 l-60 -29 -30 51 c-17 28 -34 58 -39 66 -11 17 -162
275 -193 330 -26 47 -115 201 -127 220 -5 8 -51 87 -102 176 l-94 161 86 84
c83 81 152 167 177 219 67 139 64 150 -59 279 -57 58 -169 170 -250 249 -142
139 -148 144 -185 141 -65 -6 -155 -46 -224 -100 l-37 -29 -40 68 c-22 37 -49
83 -59 102 -11 19 -35 60 -53 90 -18 30 -42 71 -52 90 -45 79 -173 298 -195
334 l-25 39 71 71 c177 179 593 610 687 712 16 17 76 82 134 144 58 62 112
120 120 130 8 9 47 52 87 96 39 43 81 90 93 104 12 14 33 39 48 55 603 675
1040 1294 1228 1738 184 433 182 767 -5 1117 -78 147 -83 151 -259 239 -342
171 -647 167 -1083 -14 -377 -157 -907 -517 -1484 -1009 -71 -61 -135 -115
-141 -121 -13 -12 -150 -134 -176 -156 -19 -17 -135 -121 -185 -166 -217 -196
-637 -597 -1009 -964 l-51 -50 -184 109 c-101 59 -191 111 -199 115 -8 4 -28
16 -45 27 -16 10 -41 25 -55 33 -55 31 -236 135 -248 143 -2 1 13 24 34 51 50
65 87 148 92 206 l4 48 -138 142 c-77 78 -188 189 -247 247 l-108 105 -49 -2
c-59 -2 -123 -29 -204 -87 -61 -44 -150 -127 -200 -187 l-26 -31 -158 92 c-86
50 -164 95 -172 100 -40 25 -222 130 -224 130 -2 0 -43 24 -92 53 -49 30 -111
66 -139 81 -27 16 -86 50 -131 77 l-81 49 30 59 c16 34 31 80 32 108 l4 48
-244 244 -244 245 -53 0 c-82 -1 -199 -66 -303 -169 l-54 -52 -152 88 c-83 49
-155 89 -160 89 -5 0 -9 5 -9 10 0 6 -4 10 -9 10 -8 0 -145 77 -199 112 -15
10 -34 21 -42 25 -8 4 -49 27 -90 51 -41 25 -100 58 -130 75 -30 16 -62 35
-70 41 -8 6 -35 22 -60 35 -25 13 -52 30 -61 37 -8 8 -19 14 -23 14 -5 0 -175
98 -226 131 -8 5 -23 12 -32 15 -10 4 -18 10 -18 15 0 5 -4 9 -10 9 -5 0 -73
37 -150 83 -77 45 -155 90 -173 101 -17 10 -73 42 -124 72 -51 30 -96 54 -100
53 -4 0 -37 -31 -73 -68z"/>
</g>
</svg>
