<?xml version="1.0" standalone="no"?>
<!DOCTYPE svg PUBLIC "-//W3C//DTD SVG 20010904//EN"
 "http://www.w3.org/TR/2001/REC-SVG-20010904/DTD/svg10.dtd">
<svg version="1.0" xmlns="http://www.w3.org/2000/svg"
 width="640.000000pt" height="640.000000pt" viewBox="0 0 640.000000 640.000000"
 preserveAspectRatio="xMidYMid meet">
<metadata>
Created by potrace 1.14, written by Peter Selinger 2001-2017
</metadata>
<g transform="translate(0.000000,640.000000) scale(0.100000,-0.100000)"
fill="#000000" stroke="none">
<path d="M2208 6395 c-2 -1 -28 -5 -58 -9 -30 -3 -71 -8 -90 -10 -19 -3 -80
-10 -135 -16 -55 -6 -111 -13 -125 -15 -14 -2 -50 -6 -80 -10 -58 -6 -98 -11
-165 -19 -37 -5 -255 -31 -335 -41 -19 -2 -60 -7 -90 -10 -30 -4 -66 -8 -80
-10 -14 -2 -54 -7 -90 -10 -36 -4 -72 -9 -80 -10 -8 -1 -44 -6 -80 -11 -36 -4
-69 -8 -75 -9 -5 -1 -22 -3 -37 -3 l-28 -2 0 -3106 0 -3107 103 6 c56 4 111 8
122 10 11 3 49 8 85 12 36 3 76 8 90 10 14 2 52 6 85 10 33 4 71 8 85 10 30 4
107 13 170 20 25 3 56 7 70 9 14 3 52 8 85 11 33 3 74 8 90 10 25 4 221 27
495 60 25 3 87 10 138 16 l92 11 0 1172 0 1171 829 0 c456 0 832 -3 836 -6 3
-4 6 -575 6 -1269 l0 -1263 102 6 c56 4 113 9 127 11 14 3 50 7 80 10 61 7 82
9 255 31 66 8 145 17 175 20 30 3 66 7 80 10 14 2 45 6 70 9 96 11 213 25 428
51 23 3 100 12 170 20 70 9 148 18 175 21 l47 7 0 3105 0 3105 -102 -6 c-57
-4 -114 -8 -128 -11 -14 -2 -50 -7 -80 -10 -30 -4 -89 -10 -130 -16 -41 -5
-97 -11 -125 -15 -27 -3 -66 -7 -85 -10 -19 -2 -57 -7 -85 -10 -27 -3 -84 -10
-125 -15 -41 -5 -95 -12 -120 -15 -25 -3 -103 -12 -175 -20 -71 -9 -146 -17
-165 -20 -19 -2 -96 -11 -170 -20 -74 -9 -144 -18 -155 -20 -11 -2 -30 -4 -42
-4 l-22 -1 0 -1097 c0 -604 -1 -1101 -1 -1105 0 -5 -376 -8 -835 -8 l-835 0 0
1201 0 1200 -80 -2 c-44 -1 -81 -3 -82 -4z"/>
</g>
</svg>
